# xmcd
#
# Track frame offsets:
#	150
#	19428
#	37343
#	56001
#	73938
#	88753
#	107441
#	126294
#	145399
#	164027
#	181387
#	200599
#	221024
#	243064
#	264309
#
# Disc length: 3781 seconds
#
# Revision: 0
# Processed by: cddbd v1.5.1PL2 Copyright (c) Steve Scherf et al.
# Submitted via: audiograbber 1.83.01
#
DISCID=eb0ec30f
DTITLE=Sound Choice Karaoke - SC8795
DYEAR=1900
DGENRE=Karaoke Country
TTITLE0=Twain, Shania - I'm Gonna Getcha Good
TTITLE1=Dixie Chicks - Landslide
TTITLE2=Howard, Rebecca Lynn - Forgive
TTITLE3=Hill, Faith - Cry
TTITLE4=O'Neal Jamie - Frantic
TTITLE5=Messina, Jo Dee and McGraw, Tim - Bring On The Rain
TTITLE6=Coffey, Kelly - When You Lie Next To Me
TTITLE7=Evans, Sara - Saints And Angels
TTITLE8=Johnson, Carolyn Dawn - I Don't Want You To Go (Radio)
TTITLE9=Dixie Chicks - Long Time Gone
TTITLE10=Evans, Sara - I Keep Looking
TTITLE11=O'Neal, Jamie - Shiver
TTITLE12=McBride, Martina - Where Would You Be
TTITLE13=Nelson, Willie and Womack, Lee Ann - Mendocino County Line
TTITLE14=McBride, Martina - Blessed (Radio)
EXTD=
EXTT0=
EXTT1=
EXTT2=
EXTT3=
EXTT4=
EXTT5=
EXTT6=
EXTT7=
EXTT8=
EXTT9=
EXTT10=
EXTT11=
EXTT12=
EXTT13=
EXTT14=
PLAYORDER=
